<svg xmlns="http://www.w3.org/2000/svg" viewBox="0 0 20 20" fill="none">
<path fill-rule="evenodd" clip-rule="evenodd" d="M9.99984 2.91669C7.01168 2.91669 5.62484 4.92853 5.62484 6.66669V13.5417H3.12484C2.31942 13.5417 1.6665 12.8888 1.6665 12.0834V8.75002C1.6665 7.94461 2.31942 7.29169 3.12484 7.29169H4.37484V6.66669C4.37484 4.23818 6.32133 1.66669 9.99984 1.66669C13.6783 1.66669 15.6248 4.23818 15.6248 6.66669V7.29169H16.8748C17.6803 7.29169 18.3332 7.94461 18.3332 8.75002V12.0834C18.3332 12.8888 17.6803 13.5417 16.8748 13.5417H15.6248V15.8334C15.6248 16.6388 14.9719 17.2917 14.1665 17.2917H13.0644C12.8852 17.8941 12.3271 18.3334 11.6665 18.3334H8.12484C7.31942 18.3334 6.6665 17.6804 6.6665 16.875V16.4584C6.6665 15.6529 7.31942 15 8.12484 15H11.6665C12.3271 15 12.8852 15.4393 13.0644 16.0417H14.1665C14.2816 16.0417 14.3748 15.9484 14.3748 15.8334V6.66669C14.3748 4.92853 12.988 2.91669 9.99984 2.91669ZM4.37484 8.54169V12.2917H3.12484C3.00978 12.2917 2.9165 12.1984 2.9165 12.0834V8.75002C2.9165 8.63496 3.00978 8.54169 3.12484 8.54169H4.37484ZM15.6248 12.2917V8.54169H16.8748C16.9899 8.54169 17.0832 8.63496 17.0832 8.75002V12.0834C17.0832 12.1984 16.9899 12.2917 16.8748 12.2917H15.6248ZM7.9165 16.4584C7.9165 16.3433 8.00978 16.25 8.12484 16.25H11.6665C11.7816 16.25 11.8748 16.3433 11.8748 16.4584V16.875C11.8748 16.9901 11.7816 17.0834 11.6665 17.0834H8.12484C8.00978 17.0834 7.9165 16.9901 7.9165 16.875V16.4584Z" fill="#97999B"/>
</svg>