<svg xmlns="http://www.w3.org/2000/svg" viewBox="0 0 16 16" fill="none">
  <g clip-path="url(#clip0_1993_2317)">
    <path d="M8 0.5C3.85826 0.5 0.5 3.85826 0.5 8C0.5 12.1417 3.85826 15.5 8 15.5C12.1417 15.5 15.5 12.1417 15.5 8C15.5 3.85826 12.1417 0.5 8 0.5ZM8 14.2277C4.56138 14.2277 1.77232 11.4386 1.77232 8C1.77232 4.56138 4.56138 1.77232 8 1.77232C11.4386 1.77232 14.2277 4.56138 14.2277 8C14.2277 11.4386 11.4386 14.2277 8 14.2277Z" fill="#97999B"/>
    <path d="M9.86804 4.72995C9.36581 4.28966 8.70286 4.04858 7.99974 4.04858C7.29661 4.04858 6.63367 4.29133 6.13143 4.72995C5.60911 5.18698 5.32117 5.80137 5.32117 6.4593V6.58653C5.32117 6.66019 5.38143 6.72046 5.4551 6.72046H6.25867C6.33233 6.72046 6.3926 6.66019 6.3926 6.58653V6.4593C6.3926 5.72102 7.11414 5.12001 7.99974 5.12001C8.88534 5.12001 9.60688 5.72102 9.60688 6.4593C9.60688 6.97995 9.23858 7.45707 8.66771 7.67637C8.3128 7.81198 8.01146 8.0497 7.7955 8.36108C7.57619 8.67916 7.46235 9.06086 7.46235 9.44758V9.80751C7.46235 9.88117 7.52262 9.94144 7.59628 9.94144H8.39985C8.47351 9.94144 8.53378 9.88117 8.53378 9.80751V9.42749C8.53465 9.26497 8.58447 9.10648 8.67674 8.9727C8.76902 8.83891 8.89947 8.73604 9.05108 8.67749C10.0388 8.29747 10.6766 7.42693 10.6766 6.4593C10.6783 5.80137 10.3904 5.18698 9.86804 4.72995ZM7.3301 11.6825C7.3301 11.8601 7.40065 12.0304 7.52623 12.156C7.65181 12.2816 7.82214 12.3522 7.99974 12.3522C8.17734 12.3522 8.34767 12.2816 8.47325 12.156C8.59883 12.0304 8.66938 11.8601 8.66938 11.6825C8.66938 11.5049 8.59883 11.3346 8.47325 11.209C8.34767 11.0834 8.17734 11.0129 7.99974 11.0129C7.82214 11.0129 7.65181 11.0834 7.52623 11.209C7.40065 11.3346 7.3301 11.5049 7.3301 11.6825Z" fill="#97999B"/>
  </g>
  <defs>
    <clipPath id="clip0_1993_2317">
      <rect width="15" height="15" fill="white" transform="translate(0.5 0.5)"/>
    </clipPath>
  </defs>
</svg>