<svg viewBox="0 0 20 20" fill="none" xmlns="http://www.w3.org/2000/svg" transform="translate(0, 1.5)">
<g id="Group 6387193">
<g id="Group 6387191" opacity="0.7">
<path id="Subtract" fill-rule="evenodd" clip-rule="evenodd" d="M8.06128 1.20264C8.05923 1.20264 8.05718 1.20264 8.05513 1.20264C3.60818 1.20264 -0.0130953 4.65459 3.55974e-05 8.93769C0.000161176 10.4267 0.446137 11.883 1.28272 13.1261L1.2918 13.1396L1.30164 13.1525C1.32166 13.1789 1.34037 13.2062 1.35771 13.2343C1.38956 13.2894 1.41355 13.3408 1.42611 13.3795L0.736962 15.822C0.715039 15.8963 0.701016 15.9727 0.695121 16.0499L0.69383 16.0668L0.693577 16.0838C0.691799 16.2032 0.714221 16.3217 0.759542 16.4326C0.804864 16.5435 0.872186 16.6444 0.957606 16.7296C1.04303 16.8148 1.14485 16.8825 1.25718 16.9289C1.3695 16.9752 1.4901 16.9993 1.61198 16.9996L1.64285 16.9997L1.67356 16.9966C1.78262 16.9854 1.88946 16.959 1.99084 16.9183L4.43295 16.0547L4.44731 16.0488C4.51323 16.0214 4.58413 16.0075 4.65572 16.0077L4.65649 16.0077L4.65726 16.0077C4.72355 16.0078 4.78927 16.0198 4.85117 16.043C4.98496 16.0936 5.48745 16.2767 5.99656 16.4163C6.5141 16.5583 7.45725 16.7323 8.18397 16.7323C12.6503 16.7323 16.1225 13.2111 16.1225 8.9419C16.1224 8.82758 16.1197 8.71333 16.1144 8.59923H14.9614C14.9677 8.71343 14.9708 8.82783 14.9709 8.9423C14.9708 12.6004 12.0019 15.604 8.18397 15.604C7.59354 15.604 6.75891 15.4537 6.30694 15.3297C5.84719 15.2036 5.38224 15.0344 5.26551 14.9902L5.26468 14.9899C5.07137 14.9171 4.86608 14.8796 4.65899 14.8794L4.66009 14.8794L4.65791 15.4435L4.65899 14.8794C4.43779 14.8787 4.21868 14.9208 4.01421 15.0032L1.95759 15.7305L2.55231 13.6226L2.55264 13.6214C2.61655 13.391 2.56764 13.175 2.52519 13.0426C2.47879 12.8979 2.41147 12.7668 2.3547 12.6695L2.352 12.6649L2.34922 12.6603C2.31415 12.6028 2.27636 12.5469 2.23595 12.4928C1.52854 11.4365 1.15159 10.2005 1.15164 8.93683V8.93594L1.15163 8.93505C1.14007 5.30244 4.21806 2.33099 8.05513 2.33099C8.05718 2.33099 8.05923 2.33099 8.06128 2.331" fill="currentColor"/>
<rect id="Rectangle 16515" x="12.762" width="1.15624" height="7.17196" fill="currentColor"/>
<rect id="Rectangle 16516" x="17" y="3.01904" width="1.1329" height="7.31972" transform="rotate(90 17 3.01904)" fill="currentColor" />
</g>
</g>
</svg>
