<svg viewBox="0 0 18 18" fill="currentColor" xmlns="http://www.w3.org/2000/svg">
<g id="Group 6387181" transform="translate(3, 3.5)">
<path id="Rectangle 16506 (Stroke)" fill-rule="evenodd" clip-rule="evenodd" d="M0.5 2C0.5 1.17157 1.17157 0.5 2 0.5H7C7.82843 0.5 8.5 1.17157 8.5 2V9C8.5 9.82843 7.82843 10.5 7 10.5H2C1.17157 10.5 0.5 9.82843 0.5 9V2ZM2 1.5C1.72386 1.5 1.5 1.72386 1.5 2V9C1.5 9.27614 1.72386 9.5 2 9.5H7C7.27614 9.5 7.5 9.27614 7.5 9V2C7.5 1.72386 7.27614 1.5 7 1.5H2Z" fill="currentColor"/>
<path id="Subtract" fill-rule="evenodd" clip-rule="evenodd" d="M2.5 11C2.5 11.8284 3.17157 12.5 4 12.5H9C9.82843 12.5 10.5 11.8284 10.5 11V4C10.5 3.17157 9.82843 2.5 9 2.5V3.5C9.27614 3.5 9.5 3.72386 9.5 4V11C9.5 11.2761 9.27614 11.5 9 11.5H4C3.72386 11.5 3.5 11.2761 3.5 11H2.5Z" fill="currentColor" />
</g>
</svg>
