<svg width="23" height="23" viewBox="0 0 23 23" fill="none" xmlns="http://www.w3.org/2000/svg">
<rect width="22.8873" height="22.8873" rx="11.4437" fill="white"/>
<g clip-path="url(#clip0_2130_25500)">
<path fill-rule="evenodd" clip-rule="evenodd" d="M13.5667 10.935V10.9362L13.5647 10.9421C13.427 11.4256 13.1337 11.8486 12.7314 12.1442C12.3291 12.4397 11.8409 12.5909 11.3441 12.5736C11.1161 12.5625 10.8914 12.5144 10.6785 12.4311C10.595 12.401 10.5134 12.3658 10.4341 12.3258C9.95932 12.0533 9.53585 11.698 9.18331 11.2763L9.16756 11.2588C8.90388 10.9673 8.65556 10.6655 8.40941 10.3964L8.40826 10.3954L8.40595 10.3929L8.40352 10.3905L8.40147 10.3883L8.39891 10.3858V10.385L8.39738 10.3832H8.39597L8.39494 10.3811L8.39213 10.3782H8.39085V10.3767L8.37485 10.3594L8.36563 10.35L8.3632 10.3475V10.3467L8.36153 10.345H8.36064L8.35808 10.3424V10.3412L8.35219 10.3348H8.35053L8.34797 10.3323V10.3302L8.34042 10.3221L8.33798 10.3193C7.46859 9.39114 6.58435 8.0188 5.25108 8.0188C4.67514 8.01878 4.1211 8.24222 3.70298 8.64315C3.28486 9.04407 3.03448 9.59197 3.00337 10.1741C2.95522 11.5671 3.44434 12.9244 4.36726 13.9589C5.29017 14.9934 6.57447 15.6238 7.94844 15.7169C9.32242 15.81 10.6783 15.3585 11.7292 14.4577C12.7801 13.557 13.4436 12.2778 13.5793 10.8907C13.5754 10.9054 13.5708 10.9195 13.5667 10.935Z" fill="#51A1CA"/>
<path fill-rule="evenodd" clip-rule="evenodd" d="M13.2525 8.99182C13.2281 8.95709 13.2027 8.92237 13.1757 8.88816C12.9653 8.61702 12.6967 8.39783 12.3902 8.24715C12.0838 8.09648 11.7476 8.01826 11.4069 8.0184C11.4004 8.0184 11.3941 8.0184 11.3877 8.0184H11.3841C11.0599 8.02119 10.7401 8.09491 10.4467 8.23451C9.51232 8.68086 9.30521 9.72657 8.3452 10.3131L8.33765 10.3182L8.34008 10.3209L8.3452 10.3259L8.34763 10.3285L8.35185 10.3331H8.35275L8.35493 10.3364L8.35749 10.339V10.3403L8.36094 10.3441H8.36261V10.3458L8.37426 10.3587L8.39026 10.375V10.3761L8.39154 10.3775H8.39282L8.39435 10.3805L8.39627 10.3826H8.39781V10.3844L8.40088 10.3876H8.40293V10.3898L8.40562 10.3928H8.40792V10.3953L8.40907 10.3964L8.41048 10.3978L8.41291 10.4004C8.662 10.6712 8.90777 10.9705 9.16723 11.2588L9.18297 11.2762C9.62125 11.7588 10.1016 12.2097 10.6782 12.4315C10.9604 12.5353 11.2606 12.58 11.5604 12.5627C11.8603 12.5455 12.1535 12.4667 12.4223 12.3311C12.6911 12.1955 12.9298 12.006 13.124 11.7741C13.3182 11.5423 13.4637 11.2728 13.5518 10.9822L13.5544 10.9795V10.977C13.5571 10.9651 13.5607 10.9535 13.565 10.9421L13.567 10.935V10.9336C13.572 10.9183 13.5746 10.9056 13.5798 10.8902C13.6765 10.57 13.6972 10.2312 13.6403 9.90141C13.5835 9.57159 13.4506 9.25997 13.2525 8.99182Z" fill="#0D196D"/>
<path fill-rule="evenodd" clip-rule="evenodd" d="M19.673 10.9354L19.6718 10.9391C19.5345 11.4231 19.2414 11.8468 18.8389 12.1428C18.4365 12.4388 17.9478 12.5903 17.4506 12.573C17.2263 12.5623 17.005 12.5156 16.7951 12.4347C16.7914 12.4334 16.7877 12.4324 16.784 12.431L16.7791 12.429C16.7748 12.4275 16.7705 12.4255 16.7663 12.424L16.7398 12.4134C16.6729 12.3874 16.6064 12.3588 16.541 12.3256C16.1168 12.0866 15.7355 11.7767 15.4132 11.4091L15.4079 11.4041C15.3951 11.3898 15.3812 11.3758 15.368 11.3616C15.3414 11.3332 15.3155 11.3046 15.2893 11.2757L15.2703 11.2547L15.262 11.2452C15.0429 11.0023 14.834 10.7529 14.6285 10.5213C14.5959 10.4849 14.5633 10.4479 14.5306 10.4122L14.5169 10.3972L14.5151 10.3954L14.513 10.3931L14.5105 10.3906L14.5085 10.3884L14.5062 10.3859L14.5044 10.3834L14.5026 10.3814L14.4996 10.3782H14.4984V10.3769C14.4925 10.3704 14.4866 10.3639 14.4806 10.3576L14.4733 10.3502L14.4707 10.3477V10.3467L14.469 10.345L14.4656 10.3425V10.3412L14.4598 10.335H14.4582L14.4557 10.3323V10.3305L14.4481 10.3222L14.4466 10.3206L14.4456 10.3196C14.0637 9.91174 13.6789 9.41862 13.2546 8.99313C13.4525 9.26134 13.5845 9.57298 13.6412 9.90281C13.698 10.2326 13.6772 10.5713 13.5805 10.8915C13.5057 11.6587 13.2684 12.4006 12.8847 13.0665C12.501 13.7324 11.9799 14.3068 11.3569 14.7503C12.1147 15.2905 13 15.6202 13.9229 15.7065C14.8458 15.7928 15.7749 15.6327 16.6176 15.2422C17.4603 14.8517 18.1872 14.2445 18.7257 13.481C19.2643 12.7175 19.5957 11.8244 19.6869 10.8909L19.6855 10.896C19.6808 10.9089 19.6768 10.9221 19.673 10.9354Z" fill="url(#paint0_linear_2130_25500)"/>
<path fill-rule="evenodd" clip-rule="evenodd" d="M14.4517 10.3266L14.4544 10.3293L14.4585 10.3338H14.4591L14.4618 10.3363L14.4642 10.3388V10.3401L14.4677 10.3438H14.4693V10.3455L14.4792 10.3564L14.4832 10.3603L14.4853 10.3627L14.497 10.3747V10.3757L14.4983 10.377H14.4997L14.5011 10.3797L14.5029 10.3816H14.5047V10.3835L14.5076 10.3868H14.5097V10.3889L14.5123 10.3918H14.5145V10.394L14.5163 10.3959L14.5172 10.3968L14.5195 10.3993C14.5212 10.4008 14.5227 10.4028 14.5241 10.4043L14.53 10.4109C14.5625 10.4467 14.5952 10.4832 14.6279 10.52C14.8364 10.7532 15.0442 11.0016 15.2614 11.2439C15.3095 11.2971 15.3582 11.3503 15.4073 11.4027L15.4127 11.4084C15.8062 11.8269 16.236 12.2067 16.7393 12.4127C16.7482 12.4162 16.757 12.4199 16.7658 12.4233C16.7746 12.4267 16.7851 12.4304 16.7947 12.4341C17.0765 12.5361 17.3758 12.5793 17.6745 12.561C17.9732 12.5427 18.2651 12.4633 18.5327 12.3276C18.8002 12.1919 19.0378 12.0028 19.2311 11.7715C19.4244 11.5403 19.5694 11.2718 19.6574 10.9823L19.6597 10.9796V10.9771C19.6627 10.9644 19.6665 10.9519 19.6711 10.9397L19.6722 10.9354V10.9337C19.6767 10.9208 19.6795 10.9085 19.6836 10.8949L19.685 10.8897C19.7877 10.5483 19.8045 10.1865 19.7341 9.83684C19.6637 9.48724 19.5082 9.16094 19.2817 8.88752C18.9667 8.4825 18.5254 8.19747 18.0298 8.0789C17.5342 7.96034 17.0135 8.01524 16.5527 8.23464C15.6183 8.68099 15.4113 9.7267 14.4512 10.3132L14.4436 10.3183L14.4448 10.3195L14.4462 10.3209L14.4517 10.3266Z" fill="#0D196D"/>
</g>
<defs>
<linearGradient id="paint0_linear_2130_25500" x1="12.1733" y1="11.5529" x2="15.1284" y2="13.3707" gradientUnits="userSpaceOnUse">
<stop stop-color="#1D419A"/>
<stop offset="0.032" stop-color="#20479D"/>
<stop offset="0.206" stop-color="#3267AD"/>
<stop offset="0.387" stop-color="#3F81BA"/>
<stop offset="0.574" stop-color="#4992C2"/>
<stop offset="0.772" stop-color="#4F9DC8"/>
<stop offset="1" stop-color="#51A1CA"/>
</linearGradient>
<clipPath id="clip0_2130_25500">
<rect width="20" height="20" fill="white" transform="translate(1.44373 1.44366)"/>
</clipPath>
</defs>
</svg>
