<svg xmlns="http://www.w3.org/2000/svg" viewBox="0 0 16 16" fill="none" >
  <path fill-rule="evenodd" clip-rule="evenodd" d="M9.55812 7.08654V7.08737L9.55665 7.09164C9.45813 7.43742 9.24837 7.74001 8.96063 7.95141C8.6729 8.1628 8.32367 8.27091 7.96834 8.25857C7.80526 8.25065 7.64451 8.21623 7.49224 8.15663C7.43255 8.13507 7.37418 8.10991 7.31746 8.08128C6.97783 7.88643 6.67494 7.6323 6.42278 7.33064L6.41151 7.31813C6.22291 7.10962 6.04529 6.89378 5.86923 6.7013L5.8684 6.70056L5.86675 6.6988L5.86502 6.69704L5.86355 6.69546L5.86172 6.6937V6.69315L5.86062 6.69185H5.85961L5.85888 6.69037L5.85687 6.68823H5.85595V6.68722L5.84451 6.6748L5.83791 6.66812L5.83617 6.66627V6.66571L5.83498 6.66451H5.83434L5.83251 6.66266V6.66182L5.8283 6.65719H5.82711L5.82528 6.65543V6.65395L5.81988 6.64811L5.81814 6.64616C5.19629 5.98226 4.56382 5.00067 3.61017 5.00067C3.19821 5.00066 2.80192 5.16048 2.50286 5.44724C2.20379 5.73401 2.0247 6.12591 2.00244 6.54228C1.96801 7.53864 2.31786 8.50948 2.97799 9.2494C3.63812 9.98933 4.55675 10.4403 5.53951 10.5069C6.52228 10.5735 7.49209 10.2505 8.24376 9.6062C8.99544 8.96194 9.47002 8.04696 9.56709 7.05485C9.56434 7.06532 9.56105 7.07542 9.55812 7.08654Z" fill="#51A1CA"/>
  <path fill-rule="evenodd" clip-rule="evenodd" d="M9.33335 5.69674C9.31587 5.6719 9.29774 5.64706 9.27842 5.6226C9.12787 5.42866 8.93575 5.27188 8.71657 5.16411C8.49739 5.05633 8.25688 5.00039 8.0132 5.00049C8.00854 5.00049 8.00405 5.00049 7.99947 5.00049H7.99691C7.76502 5.00248 7.53631 5.05521 7.32644 5.15507C6.65808 5.47432 6.50994 6.22228 5.82327 6.64181L5.81787 6.64542L5.81961 6.64737L5.82327 6.65098L5.82501 6.65284L5.82803 6.65608H5.82868L5.83023 6.65849L5.83206 6.66034V6.66127L5.83453 6.66396H5.83572V6.66516L5.84406 6.67443L5.8555 6.68611V6.68685L5.85642 6.68787H5.85733L5.85843 6.69L5.8598 6.69148H5.8609V6.69278L5.8631 6.69509H5.86456V6.69667L5.86649 6.6988H5.86814V6.70056L5.86896 6.7014L5.86997 6.70242L5.87171 6.70427C6.04987 6.89795 6.22566 7.11203 6.41125 7.31822L6.42251 7.33064C6.736 7.67585 7.07961 7.99835 7.49198 8.157C7.69386 8.23129 7.90856 8.26323 8.12303 8.25089C8.33749 8.23854 8.54724 8.18218 8.7395 8.08521C8.93177 7.98824 9.10254 7.8527 9.24143 7.68684C9.38032 7.52097 9.48442 7.32824 9.54741 7.12037L9.54924 7.11842V7.11666C9.55122 7.10819 9.55376 7.09986 9.55684 7.09173L9.55831 7.08664V7.08562C9.56188 7.07468 9.56371 7.0656 9.56746 7.05457C9.63658 6.82554 9.6514 6.58325 9.61072 6.34733C9.57005 6.11142 9.47502 5.88853 9.33335 5.69674Z" fill="#0D196D"/>
  <path fill-rule="evenodd" clip-rule="evenodd" d="M13.9258 7.08694L13.9249 7.08954C13.8267 7.43574 13.617 7.73879 13.3292 7.95054C13.0413 8.16228 12.6918 8.27058 12.3362 8.25823C12.1757 8.25056 12.0174 8.21718 11.8673 8.15935C11.8646 8.15842 11.862 8.15768 11.8593 8.15666L11.8559 8.15527C11.8527 8.15416 11.8497 8.15277 11.8467 8.15166L11.8278 8.14406C11.7799 8.12552 11.7324 8.10504 11.6856 8.08132C11.3821 7.91035 11.1094 7.68871 10.8789 7.42575L10.8751 7.42214C10.866 7.41195 10.856 7.40194 10.8465 7.39174C10.8275 7.37145 10.809 7.35097 10.7902 7.3303L10.7767 7.31529L10.7707 7.30852C10.614 7.13476 10.4646 6.95637 10.3176 6.79076C10.2943 6.76472 10.2709 6.73822 10.2476 6.71273L10.2378 6.70198L10.2365 6.70069L10.2349 6.69902L10.2332 6.69726L10.2317 6.69568L10.2301 6.69392L10.2288 6.69207L10.2275 6.69068L10.2254 6.68836H10.2245V6.68743C10.2203 6.6828 10.2161 6.67817 10.2118 6.67362L10.2066 6.66834L10.2047 6.66658V6.66584L10.2035 6.66464L10.2011 6.66288V6.66195L10.197 6.6575H10.1958L10.194 6.65555V6.65426L10.1885 6.64833L10.1875 6.64721L10.1868 6.64647C9.91359 6.35474 9.63837 6.00203 9.33486 5.69769C9.47645 5.88953 9.57085 6.11244 9.61144 6.34835C9.65204 6.58426 9.63714 6.82653 9.56796 7.05553C9.51451 7.60428 9.34477 8.13491 9.0703 8.61122C8.79584 9.08754 8.42311 9.49833 7.97754 9.81559C8.51954 10.202 9.15278 10.4378 9.81289 10.4995C10.473 10.5612 11.1376 10.4467 11.7403 10.1674C12.3431 9.88814 12.863 9.45379 13.2482 8.90768C13.6334 8.36158 13.8705 7.72281 13.9357 7.05506L13.9347 7.05877C13.9313 7.06795 13.9285 7.0774 13.9258 7.08694Z" fill="url(#paint0_linear_2130_25366)"/>
  <path fill-rule="evenodd" clip-rule="evenodd" d="M10.1911 6.65142L10.193 6.65336L10.1959 6.65661H10.1964L10.1983 6.65837L10.2 6.66013V6.66105L10.2025 6.66374H10.2037V6.66495L10.2108 6.67273L10.2136 6.67551L10.2152 6.67727L10.2235 6.6858V6.68654L10.2244 6.68747H10.2254L10.2264 6.68941L10.2277 6.6908H10.229V6.6921L10.2311 6.69451H10.2325V6.69599L10.2345 6.69803H10.236V6.69961L10.2373 6.701L10.2379 6.70164L10.2396 6.70341C10.2408 6.70452 10.2419 6.70591 10.2429 6.70702L10.2471 6.71175C10.2704 6.73732 10.2937 6.76346 10.3171 6.78978C10.4663 6.95659 10.6149 7.13424 10.7703 7.30754C10.8047 7.34562 10.8395 7.38362 10.8746 7.42115L10.8785 7.42523C11.1599 7.72456 11.4674 7.99618 11.8274 8.14353C11.8337 8.14604 11.84 8.14872 11.8463 8.15113C11.8526 8.15354 11.8601 8.15623 11.867 8.15882C12.0685 8.23181 12.2826 8.26269 12.4963 8.2496C12.7099 8.23652 12.9187 8.17973 13.1101 8.08268C13.3015 7.98563 13.4714 7.85033 13.6097 7.68494C13.748 7.51956 13.8517 7.32752 13.9146 7.12043L13.9162 7.11848V7.11672C13.9184 7.10764 13.9211 7.09869 13.9244 7.08994L13.9252 7.08688V7.08568C13.9284 7.07641 13.9304 7.06761 13.9333 7.05788L13.9343 7.05417C14.0077 6.81002 14.0198 6.55118 13.9694 6.30112C13.9191 6.05106 13.8078 5.81767 13.6459 5.6221C13.4205 5.33241 13.1049 5.12854 12.7504 5.04373C12.3959 4.95893 12.0235 4.99819 11.6939 5.15513C11.0255 5.47438 10.8775 6.22234 10.1907 6.64187L10.1853 6.64548L10.1861 6.64632L10.1871 6.64734L10.1911 6.65142Z" fill="#0D196D"/>
  <defs>
    <linearGradient id="paint0_linear_2130_25366" x1="8.56144" y1="7.52857" x2="10.6751" y2="8.82883" gradientUnits="userSpaceOnUse">
      <stop stop-color="#1D419A"/>
      <stop offset="0.032" stop-color="#20479D"/>
      <stop offset="0.206" stop-color="#3267AD"/>
      <stop offset="0.387" stop-color="#3F81BA"/>
      <stop offset="0.574" stop-color="#4992C2"/>
      <stop offset="0.772" stop-color="#4F9DC8"/>
      <stop offset="1" stop-color="#51A1CA"/>
    </linearGradient>
  </defs>
</svg>