<svg xmlns="http://www.w3.org/2000/svg" width="25" height="24" viewBox="0 0 25 24" fill="none">
<path d="M12.3 15C12.0239 15 11.8 15.2239 11.8 15.5V16.5C11.8 16.7761 12.0239 17 12.3 17H13.3C13.5762 17 13.8 16.7761 13.8 16.5V15.5C13.8 15.2239 13.5762 15 13.3 15H12.3Z" fill="#444444"/>
<path d="M11.8 7.5C11.8 7.22386 12.0239 7 12.3 7H13.3C13.5762 7 13.8 7.22386 13.8 7.5V13.5C13.8 13.7761 13.5762 14 13.3 14H12.3C12.0239 14 11.8 13.7761 11.8 13.5V7.5Z" fill="#444444"/>
<path fill-rule="evenodd" clip-rule="evenodd" d="M4.80005 2C3.69548 2 2.80005 2.89543 2.80005 4V20C2.80005 21.1046 3.69548 22 4.80005 22H20.8C21.9046 22 22.8 21.1046 22.8 20V4C22.8 2.89543 21.9046 2 20.8 2H4.80005ZM20.8 3H4.80005C4.24776 3 3.80005 3.44772 3.80005 4V20C3.80005 20.5523 4.24776 21 4.80005 21H20.8C21.3523 21 21.8 20.5523 21.8 20V4C21.8 3.44772 21.3523 3 20.8 3Z" fill="#444444"/>
</svg>