<svg xmlns="http://www.w3.org/2000/svg" width="25" height="24" viewBox="0 0 25 24" fill="none">
<path d="M7.90015 12C7.624 12 7.40015 12.2239 7.40015 12.5C7.40015 12.7761 7.624 13 7.90015 13H8.90015C9.17629 13 9.40015 12.7761 9.40015 12.5C9.40015 12.2239 9.17629 12 8.90015 12H7.90015Z" fill="#444444"/>
<path d="M7.40015 16.5C7.40015 16.2239 7.624 16 7.90015 16H8.90015C9.17629 16 9.40015 16.2239 9.40015 16.5C9.40015 16.7761 9.17629 17 8.90015 17H7.90015C7.624 17 7.40015 16.7761 7.40015 16.5Z" fill="#444444"/>
<path d="M10.9001 12C10.624 12 10.4001 12.2239 10.4001 12.5C10.4001 12.7761 10.624 13 10.9001 13H16.9001C17.1763 13 17.4001 12.7761 17.4001 12.5C17.4001 12.2239 17.1763 12 16.9001 12H10.9001Z" fill="#444444"/>
<path d="M10.4001 16.5C10.4001 16.2239 10.624 16 10.9001 16H16.9001C17.1763 16 17.4001 16.2239 17.4001 16.5C17.4001 16.7761 17.1763 17 16.9001 17H10.9001C10.624 17 10.4001 16.7761 10.4001 16.5Z" fill="#444444"/>
<path fill-rule="evenodd" clip-rule="evenodd" d="M14.1326 5C14.3028 4.70583 14.4001 4.36429 14.4001 4H20.4001C21.5047 4 22.4001 4.89543 22.4001 6V20C22.4001 21.1046 21.5047 22 20.4001 22H4.40015C3.29558 22 2.40015 21.1046 2.40015 20V6C2.40015 4.89543 3.29558 4 4.40015 4H10.4001C10.4001 4.36429 10.4975 4.70583 10.6677 5H8.40015V8H16.4001V5H14.1326ZM4.40015 5H7.40015V8C7.40015 8.55228 7.84786 9 8.40015 9H16.4001C16.9524 9 17.4001 8.55228 17.4001 8V5H20.4001C20.9524 5 21.4001 5.44772 21.4001 6V20C21.4001 20.5523 20.9524 21 20.4001 21H4.40015C3.84786 21 3.40015 20.5523 3.40015 20V6C3.40015 5.44772 3.84786 5 4.40015 5Z" fill="#444444"/>
<path fill-rule="evenodd" clip-rule="evenodd" d="M12.4001 6C13.5047 6 14.4001 5.10457 14.4001 4C14.4001 2.89543 13.5047 2 12.4001 2C11.2956 2 10.4001 2.89543 10.4001 4C10.4001 5.10457 11.2956 6 12.4001 6ZM12.4001 5C12.9524 5 13.4001 4.55228 13.4001 4C13.4001 3.44772 12.9524 3 12.4001 3C11.8479 3 11.4001 3.44772 11.4001 4C11.4001 4.55228 11.8479 5 12.4001 5Z" fill="#444444"/>
<path fill-rule="evenodd" clip-rule="evenodd" d="M12.4001 5C12.9524 5 13.4001 4.55228 13.4001 4C13.4001 3.44772 12.9524 3 12.4001 3C11.8479 3 11.4001 3.44772 11.4001 4C11.4001 4.55228 11.8479 5 12.4001 5ZM14.4001 4C14.4001 5.10457 13.5047 6 12.4001 6C11.2956 6 10.4001 5.10457 10.4001 4C10.4001 2.89543 11.2956 2 12.4001 2C13.5047 2 14.4001 2.89543 14.4001 4Z" fill="#444444"/>
</svg>