<svg xmlns="http://www.w3.org/2000/svg" width="25" height="24" viewBox="0 0 25 24" fill="none">
<path fill-rule="evenodd" clip-rule="evenodd" d="M14.3325 5C14.5027 4.70583 14.6001 4.36429 14.6001 4H20.6001C21.7047 4 22.6001 4.89543 22.6001 6V20C22.6001 21.1046 21.7047 22 20.6001 22H4.6001C3.49553 22 2.6001 21.1046 2.6001 20V6C2.6001 4.89543 3.49553 4 4.6001 4H10.6001C10.6001 4.36429 10.6975 4.70583 10.8677 5H8.6001V8H16.6001V5H14.3325ZM4.6001 5H7.6001V8C7.6001 8.55228 8.04781 9 8.6001 9H16.6001C17.1524 9 17.6001 8.55228 17.6001 8V5H20.6001C21.1524 5 21.6001 5.44772 21.6001 6V20C21.6001 20.5523 21.1524 21 20.6001 21H4.6001C4.04781 21 3.6001 20.5523 3.6001 20V6C3.6001 5.44772 4.04781 5 4.6001 5Z" fill="#444444"/>
<path fill-rule="evenodd" clip-rule="evenodd" d="M12.6001 6C13.7047 6 14.6001 5.10457 14.6001 4C14.6001 2.89543 13.7047 2 12.6001 2C11.4955 2 10.6001 2.89543 10.6001 4C10.6001 5.10457 11.4955 6 12.6001 6ZM12.6001 5C13.1524 5 13.6001 4.55228 13.6001 4C13.6001 3.44772 13.1524 3 12.6001 3C12.0478 3 11.6001 3.44772 11.6001 4C11.6001 4.55228 12.0478 5 12.6001 5Z" fill="#444444"/>
<path fill-rule="evenodd" clip-rule="evenodd" d="M12.6001 5C13.1524 5 13.6001 4.55228 13.6001 4C13.6001 3.44772 13.1524 3 12.6001 3C12.0478 3 11.6001 3.44772 11.6001 4C11.6001 4.55228 12.0478 5 12.6001 5ZM14.6001 4C14.6001 5.10457 13.7047 6 12.6001 6C11.4955 6 10.6001 5.10457 10.6001 4C10.6001 2.89543 11.4955 2 12.6001 2C13.7047 2 14.6001 2.89543 14.6001 4Z" fill="#444444"/>
<path fill-rule="evenodd" clip-rule="evenodd" d="M12.6001 11C12.8762 11 13.1001 11.2239 13.1001 11.5V17C13.1001 17.2761 12.8762 17.5 12.6001 17.5C12.324 17.5 12.1001 17.2761 12.1001 17V11.5C12.1001 11.2239 12.324 11 12.6001 11Z" fill="#444444"/>
<path fill-rule="evenodd" clip-rule="evenodd" d="M9.70966 15.1877C9.88217 14.972 10.1968 14.9371 10.4124 15.1096L12.6001 16.8597L14.7878 15.1096C15.0034 14.9371 15.318 14.972 15.4905 15.1877C15.663 15.4033 15.6281 15.7179 15.4124 15.8904L12.9124 17.8904C12.7298 18.0365 12.4704 18.0365 12.2878 17.8904L9.78775 15.8904C9.57212 15.7179 9.53716 15.4033 9.70966 15.1877Z" fill="#444444"/>
</svg>