<svg xmlns="http://www.w3.org/2000/svg" width="24" height="24" viewBox="0 0 24 24" fill="none">
<path fill-rule="evenodd" clip-rule="evenodd" d="M11 3H13C17.9706 3 22 7.02944 22 12C22 16.9706 17.9706 21 13 21H11C6.02944 21 2 16.9706 2 12C2 7.02944 6.02944 3 11 3ZM13 2C18.5228 2 23 6.47715 23 12C23 17.5228 18.5228 22 13 22H11C5.47715 22 1 17.5228 1 12C1 6.47715 5.47715 2 11 2H13ZM12.001 11C10.8964 11 10.001 10.1046 10.001 9C10.001 7.89543 10.8964 7 12.001 7C13.1055 7 14.001 7.89543 14.001 9C14.001 10.1046 13.1055 11 12.001 11ZM12.001 12C10.3441 12 9.00098 10.6569 9.00098 9C9.00098 7.34315 10.3441 6 12.001 6C13.6578 6 15.001 7.34315 15.001 9C15.001 10.6569 13.6578 12 12.001 12Z" fill="#444444"/>
<path fill-rule="evenodd" clip-rule="evenodd" d="M5 20C5 16.6863 7.68629 14 11 14H13C16.3137 14 19 16.6863 19 20H18C18 17.2386 15.7614 15 13 15H11C8.23858 15 6 17.2386 6 20H5Z" fill="#444444"/>
</svg>