<svg viewBox="0 0 21 11" fill="none" xmlns="http://www.w3.org/2000/svg">
<g id="Group 16">
<path id="Path 918" fill-rule="evenodd" clip-rule="evenodd" d="M13.2265 4.34108V4.34254L13.2239 4.35C13.0515 4.95513 12.6844 5.48466 12.1809 5.85461C11.6774 6.22456 11.0662 6.41374 10.4444 6.39215C10.159 6.37829 9.87769 6.31805 9.61121 6.21375C9.50675 6.17603 9.40461 6.132 9.30535 6.0819C8.71099 5.74091 8.18093 5.29617 7.73965 4.76826L7.71994 4.74636C7.38988 4.38146 7.07904 4.00375 6.77093 3.6669L6.76949 3.66561L6.76661 3.66252L6.76356 3.65944L6.761 3.65669L6.7578 3.6536V3.65263L6.75587 3.65036H6.75411L6.75283 3.64777L6.7493 3.64404H6.7477V3.64225L6.72767 3.62052L6.71614 3.60884L6.71309 3.6056V3.60463L6.71101 3.60252H6.70989L6.70669 3.59928V3.59782L6.69931 3.58971H6.69723L6.69403 3.58662V3.58403L6.68457 3.57381L6.68153 3.57041C5.59329 2.40856 4.48647 0.690765 2.81758 0.690765C2.09666 0.690737 1.40315 0.970428 0.879784 1.47228C0.356416 1.97413 0.0430089 2.65995 0.00406224 3.38861C-0.0562042 5.13226 0.556044 6.83125 1.71127 8.12613C2.86651 9.42101 4.4741 10.2102 6.19393 10.3267C7.91377 10.4433 9.61094 9.87801 10.9264 8.75054C12.2418 7.62307 13.0723 6.02184 13.2422 4.28561C13.2374 4.30394 13.2316 4.32162 13.2265 4.34108Z" fill="#51A1CA"/>
<path id="Path 917" fill-rule="evenodd" clip-rule="evenodd" d="M12.8332 1.90876C12.8026 1.86529 12.7709 1.82183 12.7371 1.77901C12.4737 1.43961 12.1374 1.16525 11.7539 0.976642C11.3703 0.788039 10.9494 0.690129 10.523 0.690308C10.5148 0.690308 10.507 0.690308 10.499 0.690308H10.4945C10.0887 0.693793 9.68841 0.786074 9.32115 0.960822C8.15152 1.51953 7.89228 2.82847 6.69061 3.56265L6.68115 3.56898L6.6842 3.57238L6.69061 3.57871L6.69365 3.58195L6.69894 3.58763H6.70006L6.70278 3.59184L6.70599 3.59509V3.59671L6.71031 3.60141H6.7124V3.60352L6.72698 3.61974L6.747 3.64017V3.64147L6.74861 3.64325H6.75021L6.75213 3.64698L6.75453 3.64958H6.75646V3.65185L6.7603 3.6559H6.76287V3.65866L6.76623 3.66239H6.76912V3.66547L6.77056 3.66693L6.77232 3.66872L6.77536 3.67196C7.08716 4.01091 7.39479 4.38555 7.71956 4.74639L7.73927 4.76812C8.28787 5.37224 8.88919 5.93662 9.61084 6.21427C9.96414 6.34427 10.3399 6.40017 10.7152 6.37857C11.0905 6.35697 11.4575 6.25833 11.794 6.08863C12.1305 5.91894 12.4293 5.68174 12.6724 5.39147C12.9154 5.1012 13.0976 4.76392 13.2079 4.40014L13.2111 4.39674V4.39365C13.2145 4.37882 13.219 4.36425 13.2244 4.35003L13.2269 4.34111V4.33932C13.2332 4.32019 13.2364 4.30429 13.2429 4.28499C13.3639 3.88419 13.3898 3.46017 13.3186 3.04732C13.2475 2.63447 13.0812 2.24441 12.8332 1.90876Z" fill="#0D196D"/>
<path id="Path 901" fill-rule="evenodd" clip-rule="evenodd" d="M20.8698 4.34159L20.8683 4.34613C20.6965 4.95198 20.3295 5.48233 19.8258 5.85289C19.322 6.22346 18.7104 6.41298 18.088 6.39136C17.8072 6.37794 17.5302 6.31953 17.2675 6.21832C17.2628 6.2167 17.2582 6.2154 17.2535 6.21361C17.2514 6.21302 17.2494 6.2122 17.2475 6.21118C17.242 6.20924 17.2367 6.2068 17.2314 6.20486L17.1983 6.19156C17.1145 6.15912 17.0313 6.12328 16.9494 6.08176C16.4184 5.78256 15.9411 5.39468 15.5377 4.93451L15.5311 4.92819C15.5151 4.91035 15.4977 4.89283 15.4811 4.87499C15.4478 4.83948 15.4155 4.80363 15.3826 4.76747L15.3589 4.7412L15.3485 4.72936C15.0742 4.42527 14.8127 4.11308 14.5555 3.82327C14.5147 3.77769 14.4738 3.73131 14.433 3.68671L14.4158 3.6679L14.4136 3.66563L14.4109 3.66271L14.4078 3.65963L14.4052 3.65687L14.4024 3.65379V3.65282L14.4001 3.65055H14.399L14.3979 3.64811L14.3942 3.64406H14.3926V3.64244C14.3852 3.63433 14.3779 3.62622 14.3703 3.61827L14.3612 3.60903L14.358 3.60595V3.60465L14.3559 3.60254H14.3549L14.3516 3.59946V3.59784L14.3444 3.59005H14.3423L14.3392 3.58665V3.58438L14.3296 3.574L14.3279 3.57205L14.3266 3.57075C13.8485 3.06022 13.3668 2.44296 12.8357 1.91037H12.8347C13.0825 2.24609 13.2487 2.63618 13.3197 3.04903C13.3908 3.46188 13.3647 3.88586 13.2436 4.28661C13.1501 5.24694 12.853 6.17555 12.3727 7.00911C11.8924 7.84267 11.2401 8.56157 10.4604 9.11677H10.4615C11.41 9.79292 12.5171 10.2056 13.6723 10.3136C14.8275 10.4217 15.9905 10.2213 17.0453 9.73253C18.1001 9.24374 19.01 8.48361 19.6841 7.52792C20.3582 6.57223 20.773 5.45437 20.8872 4.2858L20.8855 4.29229C20.8796 4.30834 20.8746 4.32488 20.8698 4.34159Z" fill="url(#paint0_linear_2221_14186)"/>
<path id="Path 899" fill-rule="evenodd" clip-rule="evenodd" d="M14.3344 3.5795L14.3377 3.5829L14.3429 3.58858H14.3437L14.347 3.59166L14.3501 3.59474V3.59636L14.3544 3.60107H14.3565V3.60317L14.3688 3.6168L14.3738 3.62166L14.3765 3.62474L14.3911 3.63966V3.64096L14.3927 3.64258H14.3945L14.3962 3.64599L14.3985 3.64842H14.4007V3.65069L14.4044 3.65491H14.407V3.6575L14.4103 3.66107H14.413V3.66383L14.4153 3.66626L14.4164 3.6674L14.4193 3.67048C14.4214 3.67242 14.4233 3.67486 14.4251 3.6768L14.4324 3.68507C14.4731 3.72984 14.514 3.77557 14.555 3.82163C14.816 4.11355 15.076 4.42445 15.3479 4.72772C15.4082 4.79437 15.4691 4.86087 15.5306 4.92655L15.5373 4.93369C16.0299 5.45752 16.5679 5.93287 17.1979 6.19073C17.2089 6.19511 17.22 6.19981 17.2311 6.20403C17.2421 6.20825 17.2552 6.21295 17.2673 6.21749C17.6199 6.34522 17.9946 6.39926 18.3684 6.37636C18.7423 6.35345 19.1078 6.25408 19.4427 6.08424C19.7776 5.9144 20.075 5.67762 20.317 5.38819C20.5589 5.09876 20.7404 4.76269 20.8505 4.40028L20.8534 4.39688V4.39379C20.8572 4.3779 20.862 4.36224 20.8676 4.34692L20.8691 4.34157V4.33946C20.8747 4.32325 20.8782 4.30784 20.8833 4.29081L20.8851 4.28432C21.0136 3.85705 21.0347 3.40409 20.9465 2.96648C20.8584 2.52886 20.6637 2.12043 20.3802 1.77818C19.9859 1.27121 19.4335 0.91443 18.8132 0.766019C18.1928 0.617607 17.5411 0.686324 16.9643 0.960961C15.7947 1.51967 15.5356 2.82861 14.3337 3.56279L14.3243 3.56912L14.3257 3.57058L14.3275 3.57236L14.3344 3.5795Z" fill="#0D196D"/>
</g>
<defs>
<linearGradient id="paint0_linear_2221_14186" x1="11.4822" y1="5.11444" x2="15.1812" y2="7.38989" gradientUnits="userSpaceOnUse">
<stop stop-color="#1D419A"/>
<stop offset="0.032" stop-color="#20479D"/>
<stop offset="0.206" stop-color="#3267AD"/>
<stop offset="0.387" stop-color="#3F81BA"/>
<stop offset="0.574" stop-color="#4992C2"/>
<stop offset="0.772" stop-color="#4F9DC8"/>
<stop offset="1" stop-color="#51A1CA"/>
</linearGradient>
</defs>
</svg>
