<svg xmlns="http://www.w3.org/2000/svg" width="25" height="24" viewBox="0 0 25 24" fill="none">
<path d="M4.70007 4.20711L4.70007 18.5H3.20007C2.92393 18.5 2.70007 18.7239 2.70007 19C2.70007 19.2761 2.92393 19.5 3.20007 19.5H4.70007V20.9999C4.70007 21.276 4.92393 21.4999 5.20007 21.4999C5.47622 21.4999 5.70007 21.276 5.70007 20.9999V19.5H19.993L18.8465 20.6464C18.6513 20.8417 18.6513 21.1583 18.8465 21.3536C19.0418 21.5488 19.3584 21.5488 19.5536 21.3536L21.5536 19.3536C21.6016 19.3056 21.6377 19.2504 21.6621 19.1914C21.6843 19.1378 21.6968 19.0811 21.6995 19.024C21.6999 19.016 21.7001 19.008 21.7001 19C21.7001 18.9322 21.6866 18.8676 21.6621 18.8086C21.6377 18.7496 21.6016 18.6944 21.5536 18.6464L19.5536 16.6464C19.3584 16.4512 19.0418 16.4512 18.8465 16.6464C18.6513 16.8417 18.6513 17.1583 18.8465 17.3536L19.993 18.5H5.70007L5.70007 4.20711L6.84652 5.35355C7.04178 5.54882 7.35836 5.54882 7.55363 5.35355C7.74889 5.15829 7.74889 4.84171 7.55363 4.64645L5.56015 2.65297C5.4692 2.55859 5.34149 2.49988 5.20007 2.49988C5.05865 2.49988 4.93094 2.55859 4.83999 2.65298L2.84652 4.64645C2.65126 4.84171 2.65126 5.15829 2.84652 5.35355C3.04178 5.54882 3.35836 5.54882 3.55363 5.35355L4.70007 4.20711Z" fill="#444444"/>
<path fill-rule="evenodd" clip-rule="evenodd" d="M9.20007 9C8.64779 9 8.20007 9.44772 8.20007 10V15C8.20007 15.5523 8.64779 16 9.20007 16H11.2001C11.7524 16 12.2001 15.5523 12.2001 15V10C12.2001 9.44772 11.7524 9 11.2001 9H9.20007ZM11.2001 10H9.20007V15H11.2001V10Z" fill="#444444"/>
<path fill-rule="evenodd" clip-rule="evenodd" d="M14.2001 8C14.2001 7.44772 14.6478 7 15.2001 7H17.2001C17.7524 7 18.2001 7.44772 18.2001 8V15C18.2001 15.5523 17.7524 16 17.2001 16H15.2001C14.6478 16 14.2001 15.5523 14.2001 15V8ZM15.2001 8H17.2001V15H15.2001V8Z" fill="#444444"/>
</svg>