<svg xmlns="http://www.w3.org/2000/svg" width="73" height="35" viewBox="0 0 73 35" fill="none">
  <path fill-rule="evenodd" clip-rule="evenodd" d="M45.6507 13.4455V13.4505L45.6419 13.4763C45.0468 15.5648 43.7798 17.3925 42.0419 18.6694C40.304 19.9462 38.1946 20.5992 36.0484 20.5247C35.0634 20.4768 34.0925 20.2689 33.1727 19.9089C32.8122 19.7787 32.4596 19.6268 32.1171 19.4539C30.0657 18.2769 28.2362 16.7419 26.7131 14.9199L26.6451 14.8443C25.5059 13.5849 24.433 12.2812 23.3696 11.1186L23.3646 11.1141L23.3547 11.1035L23.3442 11.0928L23.3353 11.0833L23.3243 11.0727V11.0693L23.3176 11.0615H23.3116L23.3071 11.0525L23.295 11.0396H23.2894V11.0335L23.2203 10.9585L23.1805 10.9182L23.17 10.907V10.9036L23.1628 10.8964H23.1589L23.1479 10.8852V10.8801L23.1224 10.8521H23.1152L23.1042 10.8415V10.8325L23.0716 10.7973L23.061 10.7855C19.305 6.77544 15.4849 0.846527 9.72478 0.846527C7.23655 0.84643 4.84293 1.81177 3.03654 3.54389C1.23016 5.276 0.148444 7.64311 0.0140207 10.158C-0.193987 16.1762 1.91917 22.0402 5.9064 26.5095C9.89363 30.9787 15.4422 33.7026 21.3781 34.1048C27.3141 34.507 33.1718 32.556 37.712 28.6646C42.2521 24.7732 45.1186 19.2466 45.7049 13.254C45.6883 13.3173 45.6684 13.3783 45.6507 13.4455Z" fill="#51A1CA"/>
  <path fill-rule="evenodd" clip-rule="evenodd" d="M44.2938 5.05036C44.1882 4.90034 44.0787 4.75033 43.962 4.60255C43.0527 3.43112 41.8923 2.48416 40.5684 1.8332C39.2445 1.18224 37.7918 0.844308 36.32 0.844926C36.2918 0.844926 36.2647 0.844926 36.2371 0.844926H36.2216C34.821 0.856956 33.4395 1.17546 32.1719 1.7786C28.135 3.70695 27.2402 8.22472 23.0927 10.7587L23.0601 10.7806L23.0706 10.7923L23.0927 10.8141L23.1032 10.8253L23.1214 10.8449H23.1253L23.1347 10.8595L23.1458 10.8707V10.8763L23.1607 10.8925H23.1679V10.8998L23.2182 10.9558L23.2873 11.0263V11.0308L23.2929 11.0369H23.2984L23.305 11.0498L23.3133 11.0588H23.32V11.0666L23.3332 11.0806H23.3421V11.0901L23.3537 11.103H23.3637V11.1136L23.3686 11.1187L23.3747 11.1248L23.3852 11.136C24.4614 12.3059 25.5231 13.5989 26.6441 14.8444L26.7121 14.9194C28.6056 17.0045 30.681 18.9524 33.1718 19.9107C34.3911 20.3594 35.688 20.5523 36.9833 20.4778C38.2787 20.4032 39.5456 20.0628 40.7069 19.4771C41.8682 18.8914 42.8996 18.0727 43.7385 17.0708C44.5774 16.069 45.2062 14.9049 45.5867 13.6493L45.5978 13.6375V13.6269C45.6097 13.5757 45.625 13.5254 45.6437 13.4763L45.6525 13.4455V13.4394C45.6741 13.3733 45.6851 13.3185 45.7078 13.2519C46.1253 11.8685 46.2148 10.405 45.9691 8.98007C45.7234 7.55513 45.1495 6.20884 44.2938 5.05036Z" fill="#0D196D"/>
  <path fill-rule="evenodd" clip-rule="evenodd" d="M72.0316 13.4472L72.0266 13.4629C71.4335 15.554 70.1669 17.3844 68.4282 18.6634C66.6895 19.9424 64.5784 20.5966 62.4303 20.5219C61.4611 20.4756 60.5053 20.274 59.5984 19.9247C59.5824 19.9191 59.5663 19.9146 59.5503 19.9085C59.543 19.9064 59.536 19.9036 59.5293 19.9001C59.5105 19.8933 59.4922 19.8849 59.474 19.8782L59.3595 19.8323C59.0703 19.7204 58.7833 19.5967 58.5007 19.4534C56.6678 18.4207 55.0204 17.0819 53.6282 15.4937L53.6055 15.4718C53.5502 15.4103 53.4899 15.3498 53.433 15.2882C53.3179 15.1657 53.2062 15.0419 53.0929 14.9171L53.011 14.8264L52.9751 14.7856C52.0283 13.736 51.1258 12.6585 50.2383 11.6582C50.0972 11.5009 49.9562 11.3409 49.8152 11.1869L49.756 11.122L49.7483 11.1142L49.7389 11.1041L49.7284 11.0934L49.7195 11.0839L49.7096 11.0733V11.0699L49.7018 11.0621H49.698L49.6941 11.0537L49.6814 11.0397H49.6758V11.0341C49.6504 11.0061 49.625 10.9781 49.599 10.9507L49.5675 10.9188L49.5564 10.9082V10.9037L49.5492 10.8964H49.5459L49.5343 10.8858V10.8802L49.5094 10.8533H49.5022L49.4917 10.8416V10.8337L49.4585 10.7979L49.4524 10.7912L49.448 10.7867C47.7978 9.02459 46.1355 6.89417 44.3023 5.05594H44.299C45.1542 6.21466 45.7277 7.56106 45.9729 8.98599C46.2181 10.4109 46.1281 11.8743 45.7103 13.2575C45.3874 16.572 44.3622 19.7771 42.7044 22.6541C41.0466 25.5311 38.7953 28.0123 36.104 29.9286H36.1079C39.3816 32.2623 43.2025 33.6866 47.1896 34.0595C51.1768 34.4324 55.1908 33.7409 58.8316 32.0539C62.4723 30.3668 65.6126 27.7433 67.9393 24.4447C70.2659 21.1462 71.6977 17.288 72.0919 13.2547L72.0858 13.277C72.0653 13.3325 72.0482 13.3896 72.0316 13.4472Z" fill="url(#paint0_linear_1984_20728)"/>
  <path fill-rule="evenodd" clip-rule="evenodd" d="M49.4748 10.8169L49.4864 10.8287L49.5041 10.8482H49.5069L49.5185 10.8589L49.529 10.8695V10.8751L49.5439 10.8913H49.5511V10.8986L49.5937 10.9456L49.6108 10.9624L49.6202 10.9731L49.6705 11.0246V11.029L49.6761 11.0346H49.6822L49.6882 11.0464L49.696 11.0548H49.7037V11.0626L49.7164 11.0772H49.7253V11.0861L49.7369 11.0985H49.7463V11.108L49.754 11.1164L49.7579 11.1203L49.7679 11.1309C49.7751 11.1376 49.7817 11.146 49.7878 11.1528L49.8132 11.1813C49.9537 11.3358 50.0947 11.4936 50.2363 11.6526C51.1371 12.6602 52.0346 13.7332 52.9731 14.78C53.181 15.01 53.3912 15.2395 53.6035 15.4662L53.6267 15.4908C55.3267 17.2989 57.1837 18.9395 59.3581 19.8295C59.3962 19.8446 59.4344 19.8608 59.4726 19.8754C59.5107 19.89 59.5561 19.9062 59.5975 19.9219C60.8148 20.3627 62.1077 20.5492 63.3982 20.4702C64.6887 20.3911 65.95 20.0482 67.1059 19.462C68.2618 18.8758 69.2883 18.0585 70.1234 17.0595C70.9586 16.0606 71.585 14.9007 71.9649 13.6498L71.9749 13.6381V13.6274C71.9881 13.5726 72.0045 13.5185 72.0241 13.4657L72.0291 13.4472V13.4399C72.0484 13.3839 72.0606 13.3308 72.0783 13.272L72.0844 13.2496C72.5277 11.7749 72.6006 10.2115 72.2963 8.70108C71.9921 7.19067 71.3203 5.78098 70.3419 4.59971C68.9809 2.84993 67.0744 1.61851 64.9332 1.10627C62.7921 0.594039 60.5427 0.831211 58.5518 1.77911C54.5149 3.70747 53.6207 8.22524 49.4726 10.7592L49.4399 10.7811L49.4449 10.7861L49.451 10.7923L49.4748 10.8169Z" fill="#0D196D"/>
  <defs>
    <linearGradient id="paint0_linear_1984_20728" x1="39.6308" y1="16.1147" x2="52.3978" y2="23.9683" gradientUnits="userSpaceOnUse">
      <stop stop-color="#1D419A"/>
      <stop offset="0.032" stop-color="#20479D"/>
      <stop offset="0.206" stop-color="#3267AD"/>
      <stop offset="0.387" stop-color="#3F81BA"/>
      <stop offset="0.574" stop-color="#4992C2"/>
      <stop offset="0.772" stop-color="#4F9DC8"/>
      <stop offset="1" stop-color="#51A1CA"/>
    </linearGradient>
  </defs>
</svg>