<svg viewBox="0 0 14 18" fill="none" xmlns="http://www.w3.org/2000/svg">
<g id="Vector">
<path fill-rule="evenodd" clip-rule="evenodd" d="M1.58301 14.8332V3.1665C1.58301 2.47615 2.14265 1.9165 2.83301 1.9165L7.83301 1.9165V5.6665C7.83301 6.01168 8.11283 6.2915 8.45801 6.2915H12.4163V14.8332C12.4163 15.5235 11.8567 16.0832 11.1663 16.0832H2.83301C2.14265 16.0832 1.58301 15.5235 1.58301 14.8332ZM13.6645 5.71536C13.6657 5.69924 13.6663 5.68295 13.6663 5.6665C13.6663 5.56881 13.6439 5.47635 13.604 5.39399C13.5405 5.20076 13.4302 5.02398 13.2804 4.88065L9.23713 1.0132C9.07488 0.858002 8.87522 0.750636 8.66005 0.699881C8.59667 0.678244 8.52871 0.666504 8.45801 0.666504C8.44615 0.666504 8.43437 0.666834 8.42267 0.667486C8.40619 0.666832 8.38966 0.666504 8.3731 0.666504H2.83301C1.4523 0.666504 0.333008 1.78579 0.333008 3.1665V14.8332C0.333008 16.2139 1.4523 17.3332 2.83301 17.3332H11.1663C12.5471 17.3332 13.6663 16.2139 13.6663 14.8332V5.78395C13.6663 5.76101 13.6657 5.73814 13.6645 5.71536ZM9.08301 2.59554L11.6401 5.0415H9.08301V2.59554Z" fill="currentColor"/>
<path fill-rule="evenodd" clip-rule="evenodd" d="M3.24967 8.99984C3.24967 8.65466 3.5295 8.37484 3.87467 8.37484H10.1247C10.4699 8.37484 10.7497 8.65466 10.7497 8.99984C10.7497 9.34502 10.4699 9.62484 10.1247 9.62484H3.87467C3.5295 9.62484 3.24967 9.34502 3.24967 8.99984Z" fill="currentColor"/>
<path fill-rule="evenodd" clip-rule="evenodd" d="M3.24967 12.7498C3.24967 12.4047 3.5295 12.1248 3.87467 12.1248L10.1247 12.1248C10.4699 12.1248 10.7497 12.4047 10.7497 12.7498C10.7497 13.095 10.4699 13.3748 10.1247 13.3748L3.87467 13.3748C3.5295 13.3748 3.24967 13.095 3.24967 12.7498Z" fill="currentColor"/>
</g>
</svg>
