<svg xmlns="http://www.w3.org/2000/svg" width="18" height="18" viewBox="0 0 18 18" fill="none">
<g clip-path="url(#clip0_2210_16586)">
<path d="M16.8753 8.99812H15.7503C15.6619 8.99812 15.5896 9.07044 15.5896 9.15883V15.5874H2.41103V2.40883H8.8396C8.92799 2.40883 9.00031 2.33651 9.00031 2.24812V1.12312C9.00031 1.03472 8.92799 0.962402 8.8396 0.962402H1.60746C1.25188 0.962402 0.9646 1.24968 0.9646 1.60526V16.391C0.9646 16.7466 1.25188 17.0338 1.60746 17.0338H16.3932C16.7488 17.0338 17.036 16.7466 17.036 16.391V9.15883C17.036 9.07044 16.9637 8.99812 16.8753 8.99812Z" fill="#51A1CA"/>
<path d="M5.86424 9.45816L5.82607 11.8468C5.82407 12.0256 5.96871 12.1722 6.1475 12.1722H6.15554L8.52607 12.114C8.56625 12.112 8.60643 12.0959 8.63456 12.0678L16.9897 3.73071C17.052 3.66843 17.052 3.56597 16.9897 3.5037L14.4926 1.00861C14.4604 0.976465 14.4203 0.962402 14.3781 0.962402C14.3359 0.962402 14.2957 0.978474 14.2636 1.00861L5.91045 9.34566C5.88143 9.37601 5.86493 9.41618 5.86424 9.45816ZM7.13991 9.93227L14.3781 2.71017L15.2861 3.6162L8.04393 10.8423L7.12585 10.8644L7.13991 9.93227Z" fill="#51A1CA"/>
</g>
<defs>
<clipPath id="clip0_2210_16586">
<rect width="18" height="18" fill="white"/>
</clipPath>
</defs>
</svg>